<svg width="18" height="18" viewBox="0 0 18 18" fill="none" xmlns="http://www.w3.org/2000/svg">
<path d="M1.35369 1.30193C1.21837 1.37267 1.1261 1.46494 1.05844 1.59411C1.00308 1.70175 1 1.79402 1 3.21186V4.71582L1.07074 4.85114C1.11072 4.92495 1.20299 5.02645 1.27373 5.07873L1.40598 5.171L2.93453 5.18023L4.46309 5.18945L4.59842 5.11564C4.68453 5.07258 4.77373 4.98954 4.83831 4.89727L4.93673 4.74965V3.22416V1.70175L4.85677 1.56643C4.81063 1.48646 4.71837 1.39112 4.63533 1.33884L4.49385 1.24965H2.97144C1.64279 1.25272 1.43366 1.25887 1.35369 1.30193Z" fill="#152A43"/>
<path d="M7.25896 1.30193C7.12364 1.37267 7.03137 1.46494 6.96371 1.59411C6.90835 1.70175 6.90527 1.79402 6.90527 3.21186V4.71582L6.97601 4.85114C7.01599 4.92495 7.10826 5.02645 7.179 5.07873L7.31125 5.171L8.83981 5.18023L10.3684 5.18945L10.5037 5.11564C10.5898 5.07258 10.679 4.98954 10.7436 4.89727L10.842 4.74965V3.22416V1.70175L10.762 1.56643C10.7159 1.48646 10.6236 1.39112 10.5406 1.33884L10.3991 1.24965H8.87671C7.54807 1.25272 7.33893 1.25887 7.25896 1.30193Z" fill="#152A43"/>
<path d="M13.1637 1.30193C13.0284 1.37267 12.9362 1.46494 12.8685 1.59411C12.8131 1.70175 12.8101 1.79402 12.8101 3.21186V4.71582L12.8808 4.85114C12.9208 4.92495 13.013 5.02645 13.0838 5.07873L13.216 5.171L14.7446 5.18023L16.2732 5.18945L16.4085 5.11564C16.4946 5.07258 16.5838 4.98954 16.6484 4.89727L16.7468 4.74965V3.22416V1.70175L16.6668 1.56643C16.6207 1.48646 16.5284 1.39112 16.4454 1.33884L16.3039 1.24965H14.7815C13.4529 1.25272 13.2437 1.25887 13.1637 1.30193Z" fill="#152A43"/>
<path d="M1.35369 7.20818C1.21837 7.27892 1.1261 7.37119 1.05844 7.50036C1.00308 7.608 1 7.70027 1 9.11811V10.6221L1.07074 10.7574C1.11072 10.8312 1.20299 10.9327 1.27373 10.985L1.40598 11.0772L2.93453 11.0865L4.46309 11.0957L4.59842 11.0219C4.68453 10.9788 4.77373 10.8958 4.83831 10.8035L4.93673 10.6559V9.13041V7.608L4.85677 7.47268C4.81063 7.39271 4.71837 7.29737 4.63533 7.24509L4.49385 7.1559H2.97144C1.64279 7.15897 1.43366 7.16512 1.35369 7.20818Z" fill="#152A43"/>
<path d="M7.25896 7.20818C7.12364 7.27892 7.03137 7.37119 6.96371 7.50036C6.90835 7.608 6.90527 7.70027 6.90527 9.11811V10.6221L6.97601 10.7574C7.01599 10.8312 7.10826 10.9327 7.179 10.985L7.31125 11.0772L8.83981 11.0865L10.3684 11.0957L10.5037 11.0219C10.5898 10.9788 10.679 10.8958 10.7436 10.8035L10.842 10.6559V9.13041V7.608L10.762 7.47268C10.7159 7.39271 10.6236 7.29737 10.5406 7.24509L10.3991 7.1559H8.87671C7.54807 7.15897 7.33893 7.16512 7.25896 7.20818Z" fill="#152A43"/>
<path d="M13.1637 7.20818C13.0284 7.27892 12.9362 7.37119 12.8685 7.50036C12.8131 7.608 12.8101 7.70027 12.8101 9.11811V10.6221L12.8808 10.7574C12.9208 10.8312 13.013 10.9327 13.0838 10.985L13.216 11.0772L14.7446 11.0865L16.2732 11.0957L16.4085 11.0219C16.4946 10.9788 16.5838 10.8958 16.6484 10.8035L16.7468 10.6559V9.13041V7.608L16.6668 7.47268C16.6207 7.39271 16.5284 7.29737 16.4454 7.24509L16.3039 7.1559H14.7815C13.4529 7.15897 13.2437 7.16512 13.1637 7.20818Z" fill="#152A43"/>
<path d="M1.35369 13.1125C1.21837 13.1832 1.1261 13.2755 1.05844 13.4047C1.00308 13.5123 1 13.6046 1 15.0224V16.5264L1.07074 16.6617C1.11072 16.7355 1.20299 16.837 1.27373 16.8893L1.40598 16.9815L2.93453 16.9908L4.46309 17L4.59842 16.9262C4.68453 16.8831 4.77373 16.8001 4.83831 16.7078L4.93673 16.5602V15.0347V13.5123L4.85677 13.377C4.81063 13.297 4.71837 13.2017 4.63533 13.1494L4.49385 13.0602H2.97144C1.64279 13.0633 1.43366 13.0694 1.35369 13.1125Z" fill="#152A43"/>
<path d="M7.25896 13.1125C7.12364 13.1832 7.03137 13.2755 6.96371 13.4047C6.90835 13.5123 6.90527 13.6046 6.90527 15.0224V16.5264L6.97601 16.6617C7.01599 16.7355 7.10826 16.837 7.179 16.8893L7.31125 16.9815L8.83981 16.9908L10.3684 17L10.5037 16.9262C10.5898 16.8831 10.679 16.8001 10.7436 16.7078L10.842 16.5602V15.0347V13.5123L10.762 13.377C10.7159 13.297 10.6236 13.2017 10.5406 13.1494L10.3991 13.0602H8.87671C7.54807 13.0633 7.33893 13.0694 7.25896 13.1125Z" fill="#152A43"/>
<path d="M13.1637 13.1125C13.0284 13.1832 12.9362 13.2755 12.8685 13.4047C12.8131 13.5123 12.8101 13.6046 12.8101 15.0224V16.5264L12.8808 16.6617C12.9208 16.7355 13.013 16.837 13.0838 16.8893L13.216 16.9815L14.7446 16.9908L16.2732 17L16.4085 16.9262C16.4946 16.8831 16.5838 16.8001 16.6484 16.7078L16.7468 16.5602V15.0347V13.5123L16.6668 13.377C16.6207 13.297 16.5284 13.2017 16.4454 13.1494L16.3039 13.0602H14.7815C13.4529 13.0633 13.2437 13.0694 13.1637 13.1125Z" fill="#152A43"/>
</svg>
